<mxfile host="65bd71144e">
    <diagram id="XC00JsIuWT35b7Nw18Tt" name="Page-1">
        <mxGraphModel dx="1524" dy="1235" grid="1" gridSize="10" guides="1" tooltips="1" connect="1" arrows="1" fold="1" page="1" pageScale="1" pageWidth="850" pageHeight="1100" math="0" shadow="0">
            <root>
                <mxCell id="0"/>
                <mxCell id="1" parent="0"/>
                <mxCell id="113" value="" style="rounded=0;whiteSpace=wrap;html=1;fillColor=#FFFFFF;" vertex="1" parent="1">
                    <mxGeometry x="20" y="40" width="820" height="830" as="geometry"/>
                </mxCell>
                <mxCell id="57" value="&lt;font style=&quot;font-size: 16px&quot;&gt;&lt;b&gt;Ticket System for Near IOU:&lt;/b&gt;&lt;/font&gt;" style="text;html=1;strokeColor=none;fillColor=none;align=center;verticalAlign=middle;whiteSpace=wrap;rounded=0;fontColor=#000000;" vertex="1" parent="1">
                    <mxGeometry x="29" y="50" width="220" height="30" as="geometry"/>
                </mxCell>
                <mxCell id="58" value="&lt;font color=&quot;#000000&quot; style=&quot;background-color: rgb(255 , 255 , 255)&quot;&gt;Kickstarter&lt;/font&gt;" style="aspect=fixed;html=1;points=[];align=center;image;fontSize=12;image=img/lib/azure2/azure_stack/User_Subscriptions.svg;" vertex="1" parent="1">
                    <mxGeometry x="52" y="172.5" width="68" height="66" as="geometry"/>
                </mxCell>
                <mxCell id="59" value="&lt;font style=&quot;font-size: 13px&quot;&gt;Tx 1&lt;/font&gt;" style="shape=card;whiteSpace=wrap;html=1;fontSize=16;size=15;fontColor=#000000;labelBackgroundColor=none;labelBorderColor=none;fillColor=#FFFFFF;strokeColor=#000000;" vertex="1" parent="1">
                    <mxGeometry x="132" y="172.5" width="40" height="40" as="geometry"/>
                </mxCell>
                <mxCell id="60" value="&lt;font style=&quot;font-size: 13px&quot;&gt;Tx 2&lt;/font&gt;" style="shape=card;whiteSpace=wrap;html=1;fontSize=16;size=20;strokeColor=#000000;fillColor=#FFFFFF;fontColor=#000000;" vertex="1" parent="1">
                    <mxGeometry x="192" y="172.5" width="40" height="40" as="geometry"/>
                </mxCell>
                <mxCell id="61" value="&lt;font style=&quot;font-size: 13px&quot;&gt;Tx n&lt;/font&gt;" style="shape=card;whiteSpace=wrap;html=1;fontSize=16;size=20;fontColor=#000000;strokeColor=#000000;fillColor=#FFFFFF;" vertex="1" parent="1">
                    <mxGeometry x="282" y="171" width="40" height="40" as="geometry"/>
                </mxCell>
                <mxCell id="62" value="&lt;font style=&quot;font-size: 12px&quot;&gt;Tx:&lt;br&gt;- Total stNEAR&lt;br&gt;- Spot NEAR&lt;/font&gt;" style="shape=card;whiteSpace=wrap;html=1;fontSize=13;size=20;fillColor=#FFFFFF;strokeColor=#000000;fontColor=#000000;" vertex="1" parent="1">
                    <mxGeometry x="275" y="80" width="90" height="64" as="geometry"/>
                </mxCell>
                <mxCell id="112" value="" style="edgeStyle=none;html=1;fontColor=#000000;" edge="1" parent="1" source="63" target="79">
                    <mxGeometry relative="1" as="geometry"/>
                </mxCell>
                <mxCell id="63" value="&lt;font color=&quot;#000000&quot; style=&quot;background-color: rgb(255 , 255 , 255)&quot;&gt;Katherine&lt;/font&gt;" style="aspect=fixed;perimeter=ellipsePerimeter;html=1;align=center;shadow=0;dashed=0;fontColor=#FFFFFF;labelBackgroundColor=#ffffff;fontSize=12;spacingTop=3;image;image=img/lib/ibm/blockchain/smart_contract.svg;" vertex="1" parent="1">
                    <mxGeometry x="610" y="132.5" width="60" height="60" as="geometry"/>
                </mxCell>
                <mxCell id="64" value="&lt;span style=&quot;background-color: rgb(255 , 255 , 255)&quot;&gt;T + 1&lt;/span&gt;" style="edgeStyle=none;html=1;fontSize=10;fontColor=#000000;strokeColor=#000000;" edge="1" parent="1" source="65" target="90">
                    <mxGeometry relative="1" as="geometry"/>
                </mxCell>
                <mxCell id="65" value="stNEAR price in NEAR&amp;nbsp;&lt;br&gt;&lt;font style=&quot;font-size: 10px&quot;&gt;(&lt;font style=&quot;font-size: 10px&quot;&gt;eg 1 stNEAR = 1.2 NEAR&lt;/font&gt;)&lt;/font&gt;" style="whiteSpace=wrap;html=1;fontSize=12;fontColor=#000000;labelBackgroundColor=none;fillColor=#FFFFFF;strokeColor=#000000;" vertex="1" parent="1">
                    <mxGeometry x="686" y="122.5" width="136" height="80" as="geometry"/>
                </mxCell>
                <mxCell id="66" value="Table" style="shape=table;startSize=30;container=1;collapsible=1;childLayout=tableLayout;fixedRows=1;rowLines=0;fontStyle=1;align=center;resizeLast=1;fontSize=12;fontColor=#000000;labelBackgroundColor=none;fillColor=#FFFFFF;strokeColor=#000000;" vertex="1" parent="1">
                    <mxGeometry x="402" y="112.5" width="180" height="160" as="geometry">
                        <mxRectangle x="390" y="900" width="60" height="30" as="alternateBounds"/>
                    </mxGeometry>
                </mxCell>
                <mxCell id="67" value="" style="shape=partialRectangle;collapsible=0;dropTarget=0;pointerEvents=0;fillColor=none;top=0;left=0;bottom=1;right=0;points=[[0,0.5],[1,0.5]];portConstraint=eastwest;fontSize=12;fontColor=#FFFFFF;" vertex="1" parent="66">
                    <mxGeometry y="30" width="180" height="30" as="geometry"/>
                </mxCell>
                <mxCell id="68" value="Total stNEAR" style="shape=partialRectangle;connectable=0;fillColor=none;top=0;left=0;bottom=0;right=0;fontStyle=1;overflow=hidden;fontSize=12;fontColor=#000000;labelBackgroundColor=#FFFFFF;" vertex="1" parent="67">
                    <mxGeometry width="90" height="30" as="geometry">
                        <mxRectangle width="90" height="30" as="alternateBounds"/>
                    </mxGeometry>
                </mxCell>
                <mxCell id="69" value="Spot Near" style="shape=partialRectangle;connectable=0;fillColor=none;top=0;left=0;bottom=0;right=0;align=left;spacingLeft=6;fontStyle=1;overflow=hidden;fontSize=12;fontColor=#000000;labelBackgroundColor=#FFFFFF;" vertex="1" parent="67">
                    <mxGeometry x="90" width="90" height="30" as="geometry">
                        <mxRectangle width="90" height="30" as="alternateBounds"/>
                    </mxGeometry>
                </mxCell>
                <mxCell id="70" value="" style="shape=partialRectangle;collapsible=0;dropTarget=0;pointerEvents=0;fillColor=none;top=0;left=0;bottom=0;right=0;points=[[0,0.5],[1,0.5]];portConstraint=eastwest;fontSize=12;fontColor=#FFFFFF;" vertex="1" parent="66">
                    <mxGeometry y="60" width="180" height="30" as="geometry"/>
                </mxCell>
                <mxCell id="71" value="3 stNear" style="shape=partialRectangle;connectable=0;fillColor=none;top=0;left=0;bottom=0;right=0;editable=1;overflow=hidden;fontSize=12;fontColor=#000000;labelBackgroundColor=#FFFFFF;" vertex="1" parent="70">
                    <mxGeometry width="90" height="30" as="geometry">
                        <mxRectangle width="90" height="30" as="alternateBounds"/>
                    </mxGeometry>
                </mxCell>
                <mxCell id="72" value="3.6 NEAR" style="shape=partialRectangle;connectable=0;fillColor=none;top=0;left=0;bottom=0;right=0;align=left;spacingLeft=6;overflow=hidden;fontSize=12;fontColor=#000000;labelBackgroundColor=#FFFFFF;" vertex="1" parent="70">
                    <mxGeometry x="90" width="90" height="30" as="geometry">
                        <mxRectangle width="90" height="30" as="alternateBounds"/>
                    </mxGeometry>
                </mxCell>
                <mxCell id="73" value="" style="shape=partialRectangle;collapsible=0;dropTarget=0;pointerEvents=0;fillColor=none;top=0;left=0;bottom=0;right=0;points=[[0,0.5],[1,0.5]];portConstraint=eastwest;fontSize=12;fontColor=#FFFFFF;" vertex="1" parent="66">
                    <mxGeometry y="90" width="180" height="30" as="geometry"/>
                </mxCell>
                <mxCell id="74" value="2 stNear" style="shape=partialRectangle;connectable=0;fillColor=none;top=0;left=0;bottom=0;right=0;editable=1;overflow=hidden;fontSize=12;fontColor=#000000;labelBackgroundColor=#FFFFFF;" vertex="1" parent="73">
                    <mxGeometry width="90" height="30" as="geometry">
                        <mxRectangle width="90" height="30" as="alternateBounds"/>
                    </mxGeometry>
                </mxCell>
                <mxCell id="75" value="2.4 NEAR" style="shape=partialRectangle;connectable=0;fillColor=none;top=0;left=0;bottom=0;right=0;align=left;spacingLeft=6;overflow=hidden;fontSize=12;fontColor=#000000;labelBackgroundColor=#FFFFFF;" vertex="1" parent="73">
                    <mxGeometry x="90" width="90" height="30" as="geometry">
                        <mxRectangle width="90" height="30" as="alternateBounds"/>
                    </mxGeometry>
                </mxCell>
                <mxCell id="76" value="" style="shape=partialRectangle;collapsible=0;dropTarget=0;pointerEvents=0;fillColor=none;top=0;left=0;bottom=0;right=0;points=[[0,0.5],[1,0.5]];portConstraint=eastwest;fontSize=12;fontColor=#FFFFFF;" vertex="1" parent="66">
                    <mxGeometry y="120" width="180" height="30" as="geometry"/>
                </mxCell>
                <mxCell id="77" value="1 stNear" style="shape=partialRectangle;connectable=0;fillColor=none;top=0;left=0;bottom=0;right=0;editable=1;overflow=hidden;fontSize=12;fontColor=#000000;labelBackgroundColor=#FFFFFF;" vertex="1" parent="76">
                    <mxGeometry width="90" height="30" as="geometry">
                        <mxRectangle width="90" height="30" as="alternateBounds"/>
                    </mxGeometry>
                </mxCell>
                <mxCell id="78" value="1.2 NEAR" style="shape=partialRectangle;connectable=0;fillColor=none;top=0;left=0;bottom=0;right=0;align=left;spacingLeft=6;overflow=hidden;fontSize=12;fontColor=#000000;labelBackgroundColor=#FFFFFF;" vertex="1" parent="76">
                    <mxGeometry x="90" width="90" height="30" as="geometry">
                        <mxRectangle width="90" height="30" as="alternateBounds"/>
                    </mxGeometry>
                </mxCell>
                <mxCell id="79" value="&lt;font color=&quot;#000000&quot; style=&quot;background-color: rgb(255 , 255 , 255)&quot;&gt;Heartbeat&lt;/font&gt;" style="verticalLabelPosition=bottom;html=1;verticalAlign=top;align=center;strokeColor=none;fillColor=#00BEF2;shape=mxgraph.azure.health_monitoring;fontSize=12;fontColor=#FFFFFF;" vertex="1" parent="1">
                    <mxGeometry x="615" y="232.5" width="50" height="42.5" as="geometry"/>
                </mxCell>
                <mxCell id="80" value="" style="shape=ellipse;fillColor=#000000;strokeColor=none;html=1;sketch=0;fontSize=12;fontColor=#FFFFFF;" vertex="1" parent="1">
                    <mxGeometry x="242" y="187.5" width="7" height="7" as="geometry"/>
                </mxCell>
                <mxCell id="81" value="" style="shape=ellipse;fillColor=#000000;strokeColor=none;html=1;sketch=0;fontSize=12;fontColor=#FFFFFF;" vertex="1" parent="1">
                    <mxGeometry x="255" y="187.5" width="7" height="7" as="geometry"/>
                </mxCell>
                <mxCell id="82" value="" style="shape=ellipse;fillColor=#000000;strokeColor=none;html=1;sketch=0;fontSize=12;fontColor=#FFFFFF;" vertex="1" parent="1">
                    <mxGeometry x="268" y="187.5" width="7" height="7" as="geometry"/>
                </mxCell>
                <mxCell id="83" value="Tx 1" style="text;html=1;strokeColor=none;fillColor=none;align=center;verticalAlign=middle;whiteSpace=wrap;rounded=0;fontSize=10;fontColor=#000000;fontStyle=1" vertex="1" parent="1">
                    <mxGeometry x="353" y="172.5" width="60" height="30" as="geometry"/>
                </mxCell>
                <mxCell id="84" value="Tx 2" style="text;html=1;strokeColor=none;fillColor=none;align=center;verticalAlign=middle;whiteSpace=wrap;rounded=0;fontSize=10;fontColor=#000000;fontStyle=1" vertex="1" parent="1">
                    <mxGeometry x="353" y="202.5" width="60" height="30" as="geometry"/>
                </mxCell>
                <mxCell id="85" value="Tx n" style="text;html=1;strokeColor=none;fillColor=none;align=center;verticalAlign=middle;whiteSpace=wrap;rounded=0;fontSize=10;fontColor=#000000;fontStyle=1" vertex="1" parent="1">
                    <mxGeometry x="353" y="232.5" width="60" height="30" as="geometry"/>
                </mxCell>
                <mxCell id="86" value="" style="verticalLabelPosition=bottom;html=1;verticalAlign=top;align=center;strokeColor=none;fillColor=#00BEF2;shape=mxgraph.azure.scheduler;pointerEvents=1;fontSize=10;fontColor=#FFFFFF;" vertex="1" parent="1">
                    <mxGeometry x="790" y="227.5" width="32" height="40" as="geometry"/>
                </mxCell>
                <mxCell id="87" value="" style="edgeStyle=none;html=1;fontSize=8;fontColor=#FFFFFF;strokeColor=#000000;" edge="1" parent="1" source="90" target="93">
                    <mxGeometry relative="1" as="geometry"/>
                </mxCell>
                <mxCell id="88" value="" style="edgeStyle=none;html=1;fontSize=8;fontColor=#FFFFFF;strokeColor=#000000;" edge="1" parent="1" source="90" target="97">
                    <mxGeometry relative="1" as="geometry"/>
                </mxCell>
                <mxCell id="89" value="&lt;font style=&quot;font-size: 10px ; background-color: rgb(255 , 255 , 255)&quot;&gt;T + 2&lt;/font&gt;" style="edgeLabel;html=1;align=center;verticalAlign=middle;resizable=0;points=[];fontSize=8;fontColor=#000000;" vertex="1" connectable="0" parent="88">
                    <mxGeometry x="-0.296" y="-2" relative="1" as="geometry">
                        <mxPoint as="offset"/>
                    </mxGeometry>
                </mxCell>
                <mxCell id="90" value="stNEAR price in NEAR&amp;nbsp;&lt;br&gt;&lt;font style=&quot;font-size: 10px&quot;&gt;(&lt;font style=&quot;font-size: 10px&quot;&gt;eg 1 stNEAR = 1.4 NEAR&lt;/font&gt;)&lt;/font&gt;" style="whiteSpace=wrap;html=1;fontSize=12;fontColor=#000000;labelBackgroundColor=#FFFFFF;fillColor=#FFFFFF;strokeColor=#000000;" vertex="1" parent="1">
                    <mxGeometry x="686" y="292.5" width="136" height="80" as="geometry"/>
                </mxCell>
                <mxCell id="91" value="" style="edgeStyle=none;html=1;fontSize=8;fontColor=#FFFFFF;strokeColor=#000000;" edge="1" parent="1" source="92" target="94">
                    <mxGeometry relative="1" as="geometry"/>
                </mxCell>
                <mxCell id="92" value="6 &lt;font style=&quot;font-size: 8px&quot;&gt;stNEAR&lt;/font&gt; * 1.4 = 8.4" style="rounded=0;whiteSpace=wrap;html=1;fontSize=10;fontColor=#000000;fillColor=#FFFFFF;labelBackgroundColor=#FFFFFF;labelBorderColor=none;strokeColor=#000000;" vertex="1" parent="1">
                    <mxGeometry x="402" y="302.5" width="90" height="60" as="geometry"/>
                </mxCell>
                <mxCell id="93" value="7.2 NEAR" style="rounded=0;whiteSpace=wrap;html=1;fontSize=10;fontColor=#000000;fillColor=#FFFFFF;labelBackgroundColor=#FFFFFF;strokeColor=#000000;" vertex="1" parent="1">
                    <mxGeometry x="492" y="302.5" width="90" height="60" as="geometry"/>
                </mxCell>
                <mxCell id="94" value="&lt;b&gt;stNEAR Vault:&lt;/b&gt;&lt;br&gt;8.4 NEAR - 7.2 NEAR = 1.2 NEAR&lt;br&gt;1.2 / 1.4 = 0.85 stNEAR available" style="rounded=0;whiteSpace=wrap;html=1;fontSize=10;fontColor=#000000;fillColor=#FFFFFF;labelBackgroundColor=#FFFFFF;strokeColor=#000000;" vertex="1" parent="1">
                    <mxGeometry x="41" y="302.5" width="191" height="60" as="geometry"/>
                </mxCell>
                <mxCell id="95" value="" style="edgeStyle=none;html=1;fontSize=10;fontColor=#FFFFFF;strokeColor=#000000;" edge="1" parent="1" source="97" target="100">
                    <mxGeometry relative="1" as="geometry"/>
                </mxCell>
                <mxCell id="96" value="&lt;span style=&quot;background-color: rgb(255 , 255 , 255)&quot;&gt;T + 3&lt;/span&gt;" style="edgeStyle=none;html=1;fontSize=10;fontColor=#000000;strokeColor=#000000;" edge="1" parent="1" source="97" target="107">
                    <mxGeometry relative="1" as="geometry"/>
                </mxCell>
                <mxCell id="97" value="stNEAR price in NEAR&amp;nbsp;&lt;br&gt;&lt;font style=&quot;font-size: 10px&quot;&gt;(&lt;font style=&quot;font-size: 10px&quot;&gt;eg 1 stNEAR = 1.6 NEAR&lt;/font&gt;)&lt;/font&gt;" style="whiteSpace=wrap;html=1;fontSize=12;fontColor=#000000;labelBackgroundColor=#FFFFFF;fillColor=#FFFFFF;strokeColor=#000000;" vertex="1" parent="1">
                    <mxGeometry x="686" y="432.5" width="136" height="80" as="geometry"/>
                </mxCell>
                <mxCell id="98" value="&lt;b&gt;stNEAR Vault:&lt;/b&gt;&lt;br&gt;9.6 NEAR - 7.2 NEAR = 2.4 NEAR&lt;br&gt;2.4 / 1.6 = 1.5 stNEAR available" style="rounded=0;whiteSpace=wrap;html=1;fontSize=10;fontColor=#000000;fillColor=#FFFFFF;labelBackgroundColor=#FFFFFF;strokeColor=#000000;" vertex="1" parent="1">
                    <mxGeometry x="41" y="442.5" width="191" height="60" as="geometry"/>
                </mxCell>
                <mxCell id="99" value="6 &lt;font style=&quot;font-size: 8px&quot;&gt;stNEAR&lt;/font&gt; * 1.6 = 9.6" style="rounded=0;whiteSpace=wrap;html=1;fontSize=10;fontColor=#000000;fillColor=#FFFFFF;labelBackgroundColor=#FFFFFF;labelBorderColor=none;strokeColor=#000000;" vertex="1" parent="1">
                    <mxGeometry x="402" y="442.5" width="90" height="60" as="geometry"/>
                </mxCell>
                <mxCell id="100" value="7.2 NEAR" style="rounded=0;fontSize=10;fontColor=#000000;fillColor=#FFFFFF;whiteSpace=wrap;html=1;labelBackgroundColor=#FFFFFF;strokeColor=#000000;" vertex="1" parent="1">
                    <mxGeometry x="492" y="442.5" width="90" height="60" as="geometry"/>
                </mxCell>
                <mxCell id="101" value="" style="edgeStyle=none;html=1;fontSize=8;fontColor=#FFFFFF;strokeColor=#000000;" edge="1" parent="1">
                    <mxGeometry relative="1" as="geometry">
                        <mxPoint x="402" y="471.97000000000025" as="sourcePoint"/>
                        <mxPoint x="232" y="471.97000000000025" as="targetPoint"/>
                    </mxGeometry>
                </mxCell>
                <mxCell id="102" value="" style="edgeStyle=none;html=1;fontSize=10;fontColor=#FFFFFF;strokeColor=#000000;" edge="1" parent="1" source="103" target="104">
                    <mxGeometry relative="1" as="geometry"/>
                </mxCell>
                <mxCell id="103" value="&lt;font color=&quot;#000000&quot; style=&quot;background-color: rgb(255 , 255 , 255)&quot;&gt;Kickstarter&lt;/font&gt;" style="aspect=fixed;html=1;points=[];align=center;image;fontSize=12;image=img/lib/azure2/azure_stack/User_Subscriptions.svg;" vertex="1" parent="1">
                    <mxGeometry x="41" y="522.5" width="68" height="66" as="geometry"/>
                </mxCell>
                <mxCell id="104" value="" style="sketch=0;outlineConnect=0;fontColor=#232F3E;gradientColor=none;fillColor=#3F8624;strokeColor=none;dashed=0;verticalLabelPosition=bottom;verticalAlign=top;align=center;html=1;fontSize=12;fontStyle=0;aspect=fixed;pointerEvents=1;shape=mxgraph.aws4.backup_vault;" vertex="1" parent="1">
                    <mxGeometry x="152" y="525.5" width="60" height="60" as="geometry"/>
                </mxCell>
                <mxCell id="105" value="Kickstarter pulls the 1.5 stNear available from the Vault" style="rounded=0;whiteSpace=wrap;html=1;fontSize=10;fontColor=#000000;fillColor=#FFFFFF;labelBackgroundColor=#FFFFFF;strokeColor=#000000;" vertex="1" parent="1">
                    <mxGeometry x="223" y="525.5" width="90" height="60" as="geometry"/>
                </mxCell>
                <mxCell id="106" value="" style="edgeStyle=none;html=1;fontSize=10;fontColor=#000000;labelBackgroundColor=none;strokeColor=#000000;" edge="1" parent="1" source="107" target="110">
                    <mxGeometry relative="1" as="geometry"/>
                </mxCell>
                <mxCell id="107" value="stNEAR price in NEAR&amp;nbsp;&lt;br&gt;&lt;font style=&quot;font-size: 10px&quot;&gt;(&lt;font style=&quot;font-size: 10px&quot;&gt;eg 1 stNEAR = 1.8 NEAR&lt;/font&gt;)&lt;/font&gt;" style="whiteSpace=wrap;html=1;fontSize=12;fontColor=#000000;labelBackgroundColor=none;fillColor=#FFFFFF;strokeColor=#000000;" vertex="1" parent="1">
                    <mxGeometry x="686" y="632.5" width="136" height="80" as="geometry"/>
                </mxCell>
                <mxCell id="108" value="&lt;b&gt;stNEAR Vault:&lt;/b&gt;&lt;br&gt;8.1 NEAR - 7.2 NEAR = 0.9 NEAR&lt;br&gt;0.9 / 1.8 = 0.5 stNEAR available" style="rounded=0;whiteSpace=wrap;html=1;fontSize=10;fontColor=#000000;fillColor=#FFFFFF;labelBackgroundColor=#FFFFFF;strokeColor=#000000;" vertex="1" parent="1">
                    <mxGeometry x="41" y="642.5" width="191" height="60" as="geometry"/>
                </mxCell>
                <mxCell id="109" value="6 - 1.5&amp;nbsp;&lt;font style=&quot;font-size: 8px&quot;&gt;stNEAR&amp;nbsp;&lt;/font&gt;* 1.8 = 8.1" style="rounded=0;whiteSpace=wrap;html=1;fontSize=10;fontColor=#000000;fillColor=#FFFFFF;labelBackgroundColor=#FFFFFF;strokeColor=#000000;" vertex="1" parent="1">
                    <mxGeometry x="402" y="642.5" width="90" height="60" as="geometry"/>
                </mxCell>
                <mxCell id="110" value="7.2 NEAR" style="rounded=0;whiteSpace=wrap;html=1;fontSize=10;fontColor=#000000;fillColor=#FFFFFF;labelBackgroundColor=none;strokeColor=#000000;" vertex="1" parent="1">
                    <mxGeometry x="492" y="642.5" width="90" height="60" as="geometry"/>
                </mxCell>
                <mxCell id="111" value="" style="edgeStyle=none;html=1;fontSize=8;fontColor=#FFFFFF;strokeColor=#000000;" edge="1" parent="1">
                    <mxGeometry relative="1" as="geometry">
                        <mxPoint x="402" y="671.9700000000003" as="sourcePoint"/>
                        <mxPoint x="232" y="671.9700000000003" as="targetPoint"/>
                    </mxGeometry>
                </mxCell>
            </root>
        </mxGraphModel>
    </diagram>
</mxfile>